<svg width="18" height="22" viewBox="0 0 18 22" fill="none" xmlns="http://www.w3.org/2000/svg">
<path fill-rule="evenodd" clip-rule="evenodd" d="M18 6.16667C18 4.41777 16.6569 3 15 3H7C5.34315 3 4 4.41777 4 6.16667V18.8333C4 20.5823 5.34315 22 7 22H15C16.6569 22 18 20.5823 18 18.8333V6.16667ZM16 6.16667C16 5.5837 15.5523 5.11111 15 5.11111H7C6.44772 5.11111 6 5.5837 6 6.16667V18.8333C6 19.4163 6.44772 19.8889 7 19.8889H15C15.5523 19.8889 16 19.4163 16 18.8333V6.16667Z" fill="#0E293F"/>
<path d="M3 2H13C13.5523 2 14 1.55228 14 1C14 0.44772 13.5523 0 13 0H3C1.34315 0 0 1.34315 0 3V17C0 17.5523 0.44772 18 1 18C1.55228 18 2 17.5523 2 17V3C2 2.44772 2.44772 2 3 2Z" fill="#0E293F"/>
</svg>
