<svg width="27" height="36" viewBox="0 0 27 36" fill="none" xmlns="http://www.w3.org/2000/svg">
<path d="M13.0908 34.7969L13.833 35.7383M13.0908 34.7969C12.8456 35.1079 12.5981 35.4219 12.3486 35.7383M13.0908 34.7969C13.0933 34.8 13.0952 34.8035 13.0977 34.8066M13.0908 34.7969C17.9102 28.683 21.917 23.6046 25.2451 19.3838C25.1911 19.5645 25.1351 19.7442 25.0771 19.9229M13.0908 34.7969V34.7959M13.0908 34.7969C12.853 34.4951 12.6167 34.1962 12.3828 33.8994L0.932617 19.3721C0.86767 19.1545 0.806071 18.9353 0.74707 18.7148L6.13574 24.9795C8.91172 29.4069 12.3345 32.4157 13.0908 33.0664L13.0957 33.0713C13.8446 32.4271 17.2605 29.4224 20.0361 24.999L25.4316 18.7246C25.3734 18.9418 25.313 19.1577 25.249 19.3721L13.0908 34.7959M13.833 35.7383L13.752 35.7979C13.5569 35.9293 13.3269 36 13.0908 36C12.8548 36 12.6247 35.9293 12.4297 35.7979L12.3486 35.7383M13.833 35.7383C13.833 35.7383 22.049 29.2601 25.0771 19.9229M13.833 35.7383C13.5861 35.425 13.3405 35.1147 13.0977 34.8066M12.3486 35.7383L13.0908 34.7959M12.3486 35.7383C12.3486 35.7383 3.81419 29.0101 0.935547 19.3838C4.24933 23.5865 8.23662 28.639 13.0283 34.7178L13.0908 34.7959M25.0771 19.9229L13.0977 34.8066M25.0771 19.9229L13.0977 34.8066" fill="#0E293F" stroke="#0E293F" stroke-width="94.4882"/>
<path d="M9.8208 13.0869C9.82079 14.8501 11.1807 16.2723 12.9204 16.3594L13.0894 16.3643M9.8208 13.0869H7.63916M9.8208 13.0869C9.82098 11.2672 11.2697 9.81853 13.0894 9.81836M9.8208 13.0869H7.63916M13.0894 16.3643V18.5459M13.0894 16.3643V18.5459M13.0894 16.3643C14.9093 16.3643 16.3657 14.9069 16.3657 13.0869H18.5474C18.5474 16.0857 16.0882 18.5459 13.0894 18.5459M13.0894 18.5459L12.8101 18.5391C9.93994 18.3919 7.63914 15.992 7.63916 13.0869M7.63916 13.0869C7.63935 10.0884 10.0908 7.6369 13.0894 7.63672M13.0894 9.81836C14.9092 9.81836 16.3665 11.2671 16.3667 13.0869H18.5483C18.5482 10.0883 16.088 7.63672 13.0894 7.63672M13.0894 9.81836V7.63672M13.0894 9.81836V7.63672" fill="#0E293F" stroke="#0E293F" stroke-width="94.4882"/>
</svg>
