<svg width="64" height="47" viewBox="0 0 64 47" fill="none" xmlns="http://www.w3.org/2000/svg">
<path fill-rule="evenodd" clip-rule="evenodd" d="M25.6022 39.3461C25.6022 37.0805 27.4286 35.2554 29.6942 35.2554C31.9598 35.2554 33.7849 37.0817 33.7849 39.3461C33.7849 41.6117 31.9585 43.4368 29.6942 43.4368C27.4286 43.4381 25.6022 41.613 25.6022 39.3461ZM32.3435 23.2166H21.1479V11.395H27.4778L32.3435 23.2166ZM11.3458 35.2554C13.6114 35.2554 15.4365 37.0817 15.4365 39.3461C15.4365 41.6117 13.6101 43.4368 11.3458 43.4368C9.08016 43.4368 7.25378 41.6117 7.25378 39.3461C7.25378 37.0817 9.08016 35.2554 11.3458 35.2554ZM42.7262 0V41.04H46.3071V39.3814H63.1093V35.7994H46.3083V0H42.7262ZM0 23.2166V41.1384H3.90268C4.70669 44.5034 7.72962 47 11.3458 47C14.9607 47 17.9836 44.5034 18.7889 41.1384H22.2511C23.0551 44.5034 26.078 47 29.6942 47C33.3091 47 36.332 44.5034 37.136 41.1384H41.04V23.2166H36.2134L29.8759 7.81293H17.5658V23.2166H13.9838V20.4588H3.97715V23.2179L0 23.2166Z" fill="#0E293F"/>
</svg>
