<svg width="50" height="40" viewBox="0 0 50 40" fill="none" xmlns="http://www.w3.org/2000/svg">
<path d="M1.78576 12.1431C2.25935 12.1431 2.71356 11.955 3.04844 11.6201C3.38333 11.2852 3.57146 10.831 3.57146 10.3573V3.5715H10.7143C11.1879 3.5715 11.6421 3.38336 11.977 3.04847C12.3119 2.71357 12.5 2.25936 12.5 1.78575C12.5 1.31214 12.3119 0.857927 11.977 0.523034C11.6421 0.188141 11.1879 0 10.7143 0H3.35718C2.91397 0.00233889 2.47556 0.0919554 2.06698 0.263733C1.6584 0.43551 1.28766 0.686085 0.975917 1.00115C0.664178 1.31621 0.417547 1.68959 0.250107 2.09998C0.0826665 2.51036 -0.00230374 2.9497 4.74943e-05 3.39292V10.3573C4.74943e-05 10.831 0.188184 11.2852 0.523069 11.6201C0.857954 11.955 1.31216 12.1431 1.78576 12.1431Z" fill="#0E293F"/>
<path d="M46.6428 0H39.2857C38.8121 0 38.3579 0.188141 38.023 0.523034C37.6881 0.857927 37.5 1.31214 37.5 1.78575C37.5 2.25936 37.6881 2.71357 38.023 3.04846C38.3579 3.38336 38.8121 3.5715 39.2857 3.5715H46.4285V10.7145C46.4285 11.1881 46.6167 11.6423 46.9516 11.9772C47.2864 12.3121 47.7406 12.5002 48.2142 12.5002C48.6878 12.5002 49.142 12.3121 49.4769 11.9772C49.8118 11.6423 50 11.1881 50 10.7145V3.39292C50.0023 2.9497 49.9173 2.51036 49.7499 2.09997C49.5825 1.68959 49.3358 1.31621 49.0241 1.00115C48.7123 0.686084 48.3416 0.43551 47.933 0.263733C47.5244 0.0919554 47.086 0.00233888 46.6428 0Z" fill="#0E293F"/>
<path d="M10.7143 35.7139H3.57146V28.4459C3.57146 27.9723 3.38333 27.5181 3.04844 27.1832C2.71356 26.8483 2.25935 26.6602 1.78576 26.6602C1.31216 26.6602 0.857954 26.8483 0.523069 27.1832C0.188184 27.5181 4.74943e-05 27.9723 4.74943e-05 28.4459V35.8925C-0.00230374 36.3357 0.0826665 36.775 0.250107 37.1854C0.417547 37.5958 0.664178 37.9692 0.975917 38.2843C1.28766 38.5993 1.6584 38.8499 2.06698 39.0217C2.47556 39.1934 2.91397 39.2831 3.35718 39.2854H10.7143C11.1879 39.2854 11.6421 39.0973 11.977 38.7624C12.3119 38.4275 12.5 37.9733 12.5 37.4997C12.5 37.026 12.3119 36.5718 11.977 36.2369C11.6421 35.902 11.1879 35.7139 10.7143 35.7139Z" fill="#0E293F"/>
<path d="M48.2142 26.7842C47.7406 26.7842 47.2864 26.9723 46.9516 27.3072C46.6167 27.6421 46.4285 28.0963 46.4285 28.5699V35.7129H39.2857C38.8121 35.7129 38.3579 35.9011 38.023 36.236C37.6881 36.5708 37.5 37.0251 37.5 37.4987C37.5 37.9723 37.6881 38.4265 38.023 38.7614C38.3579 39.0963 38.8121 39.2844 39.2857 39.2844H46.6428C47.086 39.2821 47.5244 39.1925 47.933 39.0207C48.3416 38.8489 48.7123 38.5983 49.0241 38.2833C49.3358 37.9682 49.5825 37.5948 49.7499 37.1844C49.9173 36.7741 50.0023 36.3347 50 35.8915V28.5699C50 28.0963 49.8118 27.6421 49.4769 27.3072C49.142 26.9723 48.6878 26.7842 48.2142 26.7842Z" fill="#0E293F"/>
<path d="M14.2857 5.3584C13.8121 5.3584 13.3579 5.54654 13.023 5.88143C12.6881 6.21633 12.5 6.67054 12.5 7.14415V25.0016C12.5 25.4752 12.6881 25.9295 13.023 26.2644C13.3579 26.5992 13.8121 26.7874 14.2857 26.7874C14.7593 26.7874 15.2135 26.5992 15.5484 26.2644C15.8833 25.9295 16.0714 25.4752 16.0714 25.0016V7.14415C16.0714 6.67054 15.8833 6.21633 15.5484 5.88143C15.2135 5.54654 14.7593 5.3584 14.2857 5.3584Z" fill="#0E293F"/>
<path d="M15.554 30.8749C15.388 30.7075 15.1905 30.5747 14.9729 30.484C14.7553 30.3934 14.5219 30.3467 14.2861 30.3467C14.0504 30.3467 13.817 30.3934 13.5994 30.484C13.3818 30.5747 13.1843 30.7075 13.0183 30.8749C12.8605 31.0485 12.7337 31.2478 12.6433 31.4642C12.5488 31.678 12.5 31.9091 12.5 32.1428C12.5 32.3765 12.5488 32.6076 12.6433 32.8214C12.7235 33.043 12.8514 33.2442 13.0181 33.4109C13.1847 33.5775 13.386 33.7055 13.6076 33.7857C13.8213 33.8801 14.0524 33.9289 14.2861 33.9289C14.5198 33.9289 14.7509 33.8801 14.9647 33.7857C15.1811 33.6952 15.3804 33.5684 15.554 33.4107C15.8018 33.1595 15.9696 32.8407 16.0363 32.4942C16.1031 32.1478 16.0657 31.7894 15.929 31.4642C15.844 31.245 15.7165 31.0447 15.554 30.8749Z" fill="#0E293F"/>
<path d="M19.6431 5.3584C19.1695 5.3584 18.7153 5.54654 18.3804 5.88143C18.0456 6.21633 17.8574 6.67054 17.8574 7.14415V25.0016C17.8574 25.4752 18.0456 25.9295 18.3804 26.2644C18.7153 26.5992 19.1695 26.7874 19.6431 26.7874C20.1167 26.7874 20.5709 26.5992 20.9058 26.2644C21.2407 25.9295 21.4288 25.4752 21.4288 25.0016V7.14415C21.4288 6.67054 21.2407 6.21633 20.9058 5.88143C20.5709 5.54654 20.1167 5.3584 19.6431 5.3584Z" fill="#0E293F"/>
<path d="M25.0001 5.3584C24.5265 5.3584 24.0723 5.54654 23.7374 5.88143C23.4025 6.21633 23.2144 6.67054 23.2144 7.14415V32.1446C23.2144 32.6182 23.4025 33.0725 23.7374 33.4074C24.0723 33.7422 24.5265 33.9304 25.0001 33.9304C25.4737 33.9304 25.9279 33.7422 26.2628 33.4074C26.5976 33.0725 26.7858 32.6182 26.7858 32.1446V7.14415C26.7858 6.67054 26.5976 6.21633 26.2628 5.88143C25.9279 5.54654 25.4737 5.3584 25.0001 5.3584Z" fill="#0E293F"/>
<path d="M30.357 5.3584C29.8834 5.3584 29.4292 5.54654 29.0943 5.88143C28.7594 6.21633 28.5713 6.67054 28.5713 7.14415V25.0016C28.5713 25.4752 28.7594 25.9295 29.0943 26.2644C29.4292 26.5992 29.8834 26.7874 30.357 26.7874C30.8306 26.7874 31.2848 26.5992 31.6197 26.2644C31.9546 25.9295 32.1427 25.4752 32.1427 25.0016V7.14415C32.1427 6.67054 31.9546 6.21633 31.6197 5.88143C31.2848 5.54654 30.8306 5.3584 30.357 5.3584Z" fill="#0E293F"/>
<path d="M37.4996 7.14415C37.4996 6.67054 37.3115 6.21633 36.9766 5.88143C36.6417 5.54654 36.1875 5.3584 35.7139 5.3584C35.2403 5.3584 34.7861 5.54654 34.4512 5.88143C34.1164 6.21633 33.9282 6.67054 33.9282 7.14415V32.1446C33.9282 32.6182 34.1164 33.0725 34.4512 33.4074C34.7861 33.7422 35.2403 33.9304 35.7139 33.9304C36.1875 33.9304 36.6417 33.7422 36.9766 33.4074C37.3115 33.0725 37.4996 32.6182 37.4996 32.1446V7.14415Z" fill="#0E293F"/>
<path d="M31.625 30.874C31.4515 30.7163 31.2521 30.5894 31.0357 30.499C30.7105 30.3622 30.3521 30.3249 30.0057 30.3916C29.6593 30.4584 29.3404 30.6262 29.0893 30.874C28.9268 31.0438 28.7993 31.2441 28.7143 31.4633C28.5776 31.7885 28.5402 32.1469 28.607 32.4933C28.6737 32.8398 28.8415 33.1586 29.0893 33.4098C29.2629 33.5675 29.4622 33.6943 29.6786 33.7848C30.0038 33.9215 30.3622 33.9589 30.7086 33.8921C31.055 33.8254 31.3739 33.6576 31.625 33.4098C31.7828 33.2362 31.9096 33.0369 32 32.8205C32.0945 32.6067 32.1433 32.3756 32.1433 32.1419C32.1433 31.9082 32.0945 31.6771 32 31.4633C31.9096 31.2469 31.7828 31.0476 31.625 30.874Z" fill="#0E293F"/>
<path d="M20.9104 30.874C20.6593 30.6262 20.3404 30.4584 19.994 30.3916C19.6476 30.3249 19.2892 30.3622 18.964 30.499C18.7476 30.5894 18.5483 30.7163 18.3747 30.874C18.2121 31.0438 18.0847 31.2441 17.9997 31.4633C17.9052 31.6771 17.8564 31.9082 17.8564 32.1419C17.8564 32.3756 17.9052 32.6067 17.9997 32.8205C18.0799 33.0421 18.2079 33.2433 18.3745 33.41C18.5412 33.5766 18.7424 33.7046 18.964 33.7848C19.1777 33.8792 19.4089 33.928 19.6426 33.928C19.8763 33.928 20.1074 33.8792 20.3211 33.7848C20.5375 33.6943 20.7368 33.5675 20.9104 33.4098C21.0759 33.2429 21.2069 33.045 21.2957 32.8274C21.3846 32.6099 21.4296 32.3769 21.4283 32.1419C21.4343 31.9076 21.3854 31.6752 21.2854 31.4633C21.195 31.2469 21.0682 31.0476 20.9104 30.874Z" fill="#0E293F"/>
<path d="M42.8571 32.1446V7.14415C42.8571 6.67054 42.6689 6.21633 42.334 5.88143C41.9992 5.54654 41.545 5.3584 41.0714 5.3584C40.5978 5.3584 40.1436 5.54654 39.8087 5.88143C39.4738 6.21633 39.2856 6.67054 39.2856 7.14415V32.1446C39.2856 32.6182 39.4738 33.0725 39.8087 33.4074C40.1436 33.7422 40.5978 33.9304 41.0714 33.9304C41.545 33.9304 41.9992 33.7422 42.334 33.4074C42.6689 33.0725 42.8571 32.6182 42.8571 32.1446Z" fill="#0E293F"/>
<path d="M7.14258 7.14415V32.1446C7.14258 32.6182 7.33072 33.0725 7.6656 33.4074C8.00049 33.7422 8.45469 33.9304 8.92829 33.9304C9.40189 33.9304 9.85609 33.7422 10.191 33.4074C10.5259 33.0725 10.714 32.6182 10.714 32.1446V7.14415C10.714 6.67054 10.5259 6.21633 10.191 5.88143C9.85609 5.54654 9.40189 5.3584 8.92829 5.3584C8.45469 5.3584 8.00049 5.54654 7.6656 5.88143C7.33072 6.21633 7.14258 6.67054 7.14258 7.14415Z" fill="#0E293F"/>
</svg>
