<svg width="64" height="39" viewBox="0 0 64 39" fill="none" xmlns="http://www.w3.org/2000/svg">
<path d="M57.5854 7.43902C57.2439 6.95122 56.6829 6.65854 56.0976 6.65854H44.7561V1.82927C44.7561 0.829268 43.9268 0 42.9268 0H1.82927C0.829268 0 0 0.829268 0 1.82927V31.3902C0 32.3902 0.829268 33.2195 1.82927 33.2195H7C7.95122 36.5366 11.0244 39 14.6341 39C18.2439 39 21.3171 36.561 22.2683 33.2195H42.5366C43.4878 36.5366 46.561 39 50.1707 39C53.7805 39 56.8536 36.561 57.8049 33.2195H61.5854C62.5854 33.2195 63.4146 32.3902 63.4146 31.3902V16.3415C63.4146 15.9512 63.2927 15.5854 63.0732 15.2927L57.5854 7.43902ZM59.7805 16.878H51.5854V10.3415H55.1707L59.7805 16.878ZM3.65854 3.68293H41.0976V29.5854H22.439C21.7317 25.9024 18.5122 23.1219 14.6341 23.1219C10.7561 23.1219 7.51219 25.9024 6.82927 29.5854H3.65854V3.68293ZM14.6341 35.3415C12.2683 35.3415 10.3415 33.4146 10.3415 31.0488C10.3415 28.6829 12.2683 26.7561 14.6341 26.7561C17 26.7561 18.9268 28.6829 18.9268 31.0488C18.9268 33.4146 17 35.3415 14.6341 35.3415ZM50.1951 35.3415C47.8293 35.3415 45.9024 33.4146 45.9024 31.0488C45.9024 28.6829 47.8293 26.7561 50.1951 26.7561C52.561 26.7561 54.4878 28.6829 54.4878 31.0488C54.4878 33.4146 52.561 35.3415 50.1951 35.3415ZM58 29.5854C57.2927 25.9024 54.0732 23.1219 50.1951 23.1219C48.0975 23.1219 46.1707 23.9512 44.7561 25.2927V10.3415H47.9024V18.7073C47.9024 19.7073 48.7317 20.5366 49.7317 20.5366H59.8049V29.5854H58Z" fill="#0E293F"/>
</svg>
